<svg width="52" height="54" viewBox="0 0 52 54" fill="none" xmlns="http://www.w3.org/2000/svg">
<path fill-rule="evenodd" clip-rule="evenodd" d="M21.0874 0.264091C20.8561 0.418296 16.8468 4.42762 16.0757 5.12155C15.536 5.66126 14.9963 6.27809 14.4566 6.8178L11.9893 9.28508C11.6809 9.67059 11.6809 10.0561 11.6038 10.5958L10.987 13.3715C10.6786 15.1449 10.9099 14.8365 10.0617 15.7617L3.73933 22.7009C2.50569 24.0888 0.578125 25.4766 0.578125 27.8668C0.578125 29.563 1.19495 30.1028 2.27438 31.1822C2.8141 31.7219 3.35382 32.2616 3.97064 32.7242L7.82576 36.271C8.59679 36.9649 9.90753 38.5069 10.6786 39.2008L16.5383 44.9064C16.7697 45.2148 17.0781 45.4461 17.3865 45.7546C17.9262 46.2943 18.543 46.834 19.0827 47.3737C20.3164 48.5303 21.2416 49.6097 22.321 50.7662C23.3234 51.8457 24.1715 53.2335 25.9448 53.6961C27.9495 54.2358 29.3374 53.3106 30.6481 51.9228L41.9051 39.9719C42.4448 39.4322 42.9845 38.8924 43.6013 38.2756C45.8373 35.9625 47.842 33.8037 50.0008 31.4135C51.0032 30.257 52.3139 29.0233 51.8513 26.7873C51.4658 24.7827 50.2321 23.9346 49.1527 22.8551L37.5873 11.2897C37.1247 10.8271 36.5079 10.2103 35.8911 9.67059C34.7345 8.51406 31.5733 5.58416 30.8794 4.73603C30.3397 4.11921 29.8771 3.6566 29.3374 2.96268C28.7205 2.26876 28.4892 1.88324 27.6411 1.42063C26.793 1.03512 25.8678 0.88091 24.8654 1.18932C22.7065 1.96034 24.0944 3.03978 22.0126 0.88091C21.7813 0.649602 21.4729 0.109886 21.0874 0.264091ZM47.7649 24.5514C46.6854 23.549 44.4495 22.0841 43.5242 21.236C43.2158 20.9276 41.7509 19.8481 41.5967 19.8481C41.2111 20.0023 41.2111 20.3878 40.9798 20.4649C40.7485 20.2336 40.5943 19.2313 40.363 18.7687C40.1317 18.229 31.9588 11.2126 31.7275 11.2126C31.1878 11.3668 30.8794 12.0608 30.4168 12.2921C29.8771 11.6753 30.3397 10.0561 29.5687 9.28508C28.7205 8.43695 27.6411 7.04911 26.9472 6.04678C26.7159 5.73837 25.328 4.42763 25.0967 4.11922C24.7112 3.5795 24.3257 3.42529 24.3257 2.96268C25.1738 2.26876 26.0991 2.03745 27.2556 2.57717C27.7182 2.80847 28.0266 3.19398 28.335 3.50239C30.4168 5.96967 30.9565 6.35519 33.2696 8.51406C34.0406 9.20798 34.5032 9.8248 35.2743 10.5187C36.4308 11.5211 40.0546 15.222 41.2111 16.4556L47.148 22.4696C48.3817 23.7804 50.3863 25.3995 50.6176 26.8645C50.7719 27.9439 50.2321 29.1004 49.5382 29.7172C48.9985 29.563 48.7672 29.563 48.9985 29.563C49.6153 29.4088 50.0008 28.9462 50.155 28.4836C50.4634 27.25 48.613 25.3995 47.7649 24.5514ZM32.4215 25.6308C32.2672 25.2453 32.1131 24.3972 32.1902 23.9346C33.578 23.0093 32.8841 23.1635 34.4261 23.8575C35.8911 24.5514 37.5102 25.4766 38.8981 26.1705C39.4378 26.4018 40.8256 27.25 41.2882 27.25C41.2882 26.7102 41.134 25.8621 40.9027 25.3995C40.7485 24.9369 40.2088 24.7827 39.7462 24.4743C38.821 23.9346 38.0499 23.3948 37.1247 22.8551L33.1925 20.4649C32.5757 20.1565 32.3444 20.9276 31.6504 20.9276L31.4962 19.771C31.7275 19.6168 32.2673 19 32.4986 18.8458C32.807 18.6145 33.2696 19.0771 33.6551 19.3084L39.2065 23.0864C39.5149 23.3177 39.9775 23.7032 40.363 23.7032C40.363 23.3948 40.2859 22.2383 40.1317 21.9299C39.9775 21.6986 38.3584 20.542 37.9728 20.2336C37.1247 19.6168 32.6528 16.2243 32.3444 16.2243C32.0359 16.2243 31.5733 17.0724 31.1107 17.1495C30.9565 16.4556 30.9565 16.3014 31.342 15.9159C31.6504 15.6075 31.8817 15.2991 32.113 15.1449C32.4215 15.0678 34.5032 16.9182 34.9658 17.2266L38.5126 20.0794C39.1294 20.6192 39.0523 20.6963 39.592 20.6963C39.592 20.1565 39.592 19.2313 39.2836 18.9229C39.0523 18.6145 36.6621 16.6869 36.1995 16.3014L34.1177 14.5281C33.8093 14.2967 32.1901 12.8318 31.8817 12.9089C31.4962 13.0631 31.1107 13.8341 30.6481 13.9112C30.4168 13.2173 30.571 13.1402 30.9565 12.7547C31.1878 12.5234 31.4962 12.0608 31.8046 11.9066C32.036 11.9837 37.9728 17.3037 38.5897 17.9977C39.4378 18.8458 39.4378 18.229 39.8233 20.0023C40.1317 21.3902 41.9051 27.0958 41.7509 27.5584C41.2882 27.6355 40.6714 27.5584 40.2088 27.5584C39.2065 27.5584 37.7415 26.7873 36.8163 26.4018C36.1224 26.0934 35.4285 25.785 34.6574 25.4766C34.349 25.3995 33.8864 25.014 33.578 25.0911C33.0383 25.3224 32.8841 25.6308 32.4215 25.6308ZM2.35148 29.2546C1.88887 28.5607 1.73467 28.1752 1.88887 27.1729C1.96597 26.4789 2.35148 25.8621 2.737 25.4766C3.50802 24.6285 4.35615 23.7804 5.20428 22.8551C6.12951 21.8528 6.90053 21.0818 7.67156 20.2336C7.90287 20.0023 9.90753 17.7664 10.1388 17.6893C10.1388 18.3832 9.98463 19.3084 9.83043 19.8481C9.36781 21.6986 9.0594 25.3224 8.59679 27.1729C8.44258 27.7126 8.13417 27.6355 6.97763 28.021C6.66922 28.0981 6.36082 28.2523 6.12951 28.3294C5.28138 28.4836 3.04541 29.2546 2.35148 29.2546ZM9.98463 27.25C9.98463 26.8645 10.1388 25.4766 10.2159 25.0911L11.6038 15.0678C11.758 13.757 11.9893 12.4463 12.2206 11.2126C12.3748 10.3645 12.3748 10.0561 12.9145 9.51639C13.2229 9.20798 13.6856 8.74537 13.994 8.35985C14.765 7.58883 15.4589 6.8178 16.1528 6.04678C17.6178 4.50473 19.0827 3.11688 20.6248 1.49773C21.3187 0.803807 21.0874 0.803807 21.8584 1.65193L24.0173 4.04211C24.2486 4.27342 24.3257 4.42762 24.557 4.65893C25.0967 5.19865 25.7906 5.89257 26.2533 6.43229L27.7182 8.35985C27.9495 8.59116 29.106 10.0561 29.1831 10.2103C29.3374 10.9042 29.4916 13.4486 29.6458 14.3738C29.7229 14.9907 29.8771 15.6846 29.9542 16.3014C30.0313 16.9182 30.1084 17.7664 30.1855 18.3061L30.6481 22.3925C30.8023 23.7032 31.0336 25.1682 31.1107 26.4018C30.7252 26.4789 30.2626 26.4018 29.8771 26.3247C29.6458 26.3247 29.4916 26.2476 29.2603 26.2476C29.1832 26.2476 29.0289 26.2476 28.8747 26.2476L28.6434 26.3247C29.1832 26.6331 32.4215 27.4813 33.4238 27.7897C38.127 29.2546 42.9074 30.4112 47.5335 32.0303C47.5335 32.4929 46.5312 33.264 46.5312 33.264C46.377 33.264 44.2952 32.4158 43.9097 32.3387C43.0616 32.0303 42.2135 31.7219 41.2882 31.4135C38.7439 30.4883 35.9682 29.563 33.5009 28.5607C32.7299 28.2523 31.7275 27.9439 30.8794 27.6355C29.9542 27.3271 29.1832 27.0187 28.335 26.7102C26.7159 26.1705 27.1014 26.3247 25.1738 26.3247C24.0944 26.3247 22.7836 26.1705 21.8584 26.556C21.0103 26.8645 20.1622 27.25 19.314 27.6355C16.1528 29.1004 12.6061 30.4112 9.36781 31.8761C8.59679 32.1845 7.67156 32.6471 6.90053 32.9555C6.28371 33.264 6.28371 33.264 5.744 32.8013C5.35848 32.4158 4.97297 32.1845 4.89586 31.8761C6.66922 31.1822 14.2253 28.792 16.307 28.1752L19.2369 27.25C19.9309 27.0187 19.9309 27.0958 20.008 26.7102C19.3911 26.4789 15.7673 26.7873 14.765 26.7873C12.529 26.7102 10.8328 27.25 9.98463 27.25ZM42.9074 27.0958C42.4448 26.3247 42.9845 26.1705 43.37 25.7079C43.7555 25.3224 43.9097 25.5537 44.7579 26.0934C45.2205 26.4018 47.3022 27.4813 47.4564 27.9439C46.7625 27.9439 45.7602 27.25 44.9892 26.7873C44.6808 26.6331 44.141 26.1705 43.8326 26.4018C43.6784 26.556 43.2929 27.0958 42.9074 27.0958ZM25.7135 31.799C25.6364 31.2593 25.7906 30.9509 25.8677 30.4112C25.9448 29.9485 25.8678 29.2546 26.4075 29.3317C26.8701 29.3317 26.793 30.0257 26.8701 30.4883C26.9472 30.7967 27.1014 31.4906 27.0243 31.799C26.6388 31.8761 26.0219 31.8761 25.7135 31.799ZM25.4051 34.035C25.7906 33.9579 27.1785 33.8037 27.4098 34.1892C27.564 34.4205 28.0266 37.5817 28.0266 37.9672C27.564 38.1214 25.328 38.1214 25.0196 37.9672C24.8654 37.6588 25.2509 34.4205 25.4051 34.035ZM12.529 12.215C12.9916 12.215 14.1482 10.9813 14.765 10.4416C15.1505 10.1332 15.4589 9.9019 15.8444 9.51639C16.6925 8.82247 20.9332 4.96734 21.0874 4.96734L27.7953 11.3668C28.0266 11.5982 28.335 12.1379 28.8747 12.215C28.9518 11.7524 28.8747 10.5187 28.6434 10.2103C28.4892 9.9019 27.8724 9.28508 27.564 8.97667C26.793 8.05144 26.3304 7.43462 25.4822 6.58649L22.1668 3.19398C21.9355 2.96268 21.7813 2.80847 21.6271 2.65427C21.4729 2.50006 21.2416 2.19165 20.8561 2.42296C20.7019 2.50006 20.3935 2.88558 20.3164 2.96268C20.0851 3.11688 19.9309 3.34819 19.6995 3.50239C19.2369 3.96501 19.0056 4.19632 18.543 4.58183C17.8491 5.19865 13.0687 9.7477 12.8374 10.1332C12.6832 10.5187 12.529 11.8295 12.529 12.215ZM12.0664 15.8388C12.529 15.8388 15.9986 13.1402 16.4612 12.7547C17.1552 12.215 17.8491 11.6753 18.6201 11.2126L20.779 9.67059C21.0874 9.59349 21.3958 9.9019 21.8584 10.2874C22.8607 11.0584 24.0173 11.7524 25.0967 12.6776L28.1808 15.1449C28.5663 15.3762 28.8747 15.8388 29.3374 15.9159C29.3374 15.5304 29.2603 14.1425 29.1061 13.9112L24.557 9.59349C23.5547 8.74536 22.5523 7.97434 21.55 7.04911C21.3187 6.8949 21.1645 6.58649 20.779 6.8178L13.4542 12.7547C13.2229 12.986 12.4519 13.6028 12.2977 13.9112C12.2206 14.1425 12.0664 15.3762 12.0664 15.8388ZM29.7229 19.8481C29.8 19.2313 29.6458 18.6145 29.5687 18.0748C29.4145 17.2266 29.3374 17.3037 28.7976 16.9182C27.9495 16.3785 27.2556 15.8388 26.4846 15.2991C25.0196 14.2967 23.3234 13.0631 21.7813 12.1379C20.3935 11.2897 21.0103 11.3668 19.314 12.4463L16.9239 13.9883C16.1528 14.5281 15.3818 15.0678 14.5337 15.5304C13.7627 15.993 13.0687 16.5327 12.1435 17.1495C11.5267 17.6122 11.5267 17.9977 11.4496 19.3855C11.3725 20.3107 11.8351 19.9252 13.1458 19.0771L18.1575 16.3014C18.543 16.0701 19.0056 15.7617 19.3911 15.6075C20.8561 14.9136 20.1622 14.6823 22.0126 15.6846L25.7135 17.8435C26.0991 18.0748 26.5617 18.3832 26.9472 18.5374C27.564 18.7687 29.3374 19.9252 29.7229 19.8481ZM11.0641 24.3972L15.8444 22.778C16.5383 22.4696 17.3865 22.2383 18.1575 21.9299C18.543 21.7757 20.2393 21.0818 20.5477 21.0818C20.779 21.0818 22.5523 21.6986 22.9379 21.8528C23.6318 22.1612 24.4799 22.3925 25.328 22.7009C26.1762 22.9322 29.5687 24.3201 30.1855 24.243C30.2626 23.7032 30.1084 22.9322 30.0313 22.4696C29.9542 21.4673 29.9542 21.6215 29.1061 21.236C27.7953 20.6192 21.0874 17.1495 20.5477 17.2266C20.3164 17.2266 15.536 19.6168 14.9192 19.9252L12.0664 21.3131C11.3725 21.6986 11.2183 21.5444 11.1412 22.4696C11.2183 23.1635 10.987 23.7032 11.0641 24.3972ZM24.4799 41.8223C24.8654 41.7452 28.1808 41.7452 28.7205 41.8223C28.8747 42.4392 29.7229 47.1424 29.6458 47.4508C29.3374 47.605 27.0243 47.4508 26.7159 47.4508C26.0219 47.4508 24.4028 47.5279 23.9402 47.2966C23.786 46.834 24.3257 42.0536 24.4799 41.8223Z" fill="black"/>
</svg>
